<svg width="24" height="24" viewBox="0 0 24 24" fill="none" xmlns="http://www.w3.org/2000/svg">
<g clip-path="url(#clip0_39_317)">
<path d="M16.4496 7.5504C16.5614 7.66187 16.65 7.79429 16.7105 7.94008C16.771 8.08587 16.8021 8.24216 16.8021 8.4C16.8021 8.55784 16.771 8.71413 16.7105 8.85992C16.65 9.00571 16.5614 9.13813 16.4496 9.2496L13.6968 12L16.4496 14.7504C16.5612 14.862 16.6497 14.9944 16.7101 15.1402C16.7704 15.286 16.8015 15.4422 16.8015 15.6C16.8015 15.7578 16.7704 15.914 16.7101 16.0598C16.6497 16.2056 16.5612 16.338 16.4496 16.4496C16.338 16.5612 16.2056 16.6497 16.0598 16.7101C15.914 16.7704 15.7578 16.8015 15.6 16.8015C15.4422 16.8015 15.286 16.7704 15.1402 16.7101C14.9944 16.6497 14.862 16.5612 14.7504 16.4496L12 13.6968L9.2496 16.4496C9.13803 16.5612 9.00558 16.6497 8.8598 16.7101C8.71403 16.7704 8.55779 16.8015 8.4 16.8015C8.24222 16.8015 8.08597 16.7704 7.9402 16.7101C7.79443 16.6497 7.66197 16.5612 7.5504 16.4496C7.43883 16.338 7.35033 16.2056 7.28994 16.0598C7.22956 15.914 7.19848 15.7578 7.19848 15.6C7.19848 15.4422 7.22956 15.286 7.28994 15.1402C7.35033 14.9944 7.43883 14.862 7.5504 14.7504L10.3032 12L7.5504 9.2496C7.43883 9.13803 7.35033 9.00558 7.28994 8.8598C7.22956 8.71403 7.19848 8.55779 7.19848 8.4C7.19848 8.24222 7.22956 8.08597 7.28994 7.9402C7.35033 7.79443 7.43883 7.66197 7.5504 7.5504C7.66197 7.43883 7.79443 7.35033 7.9402 7.28994C8.08597 7.22956 8.24222 7.19848 8.4 7.19848C8.55779 7.19848 8.71403 7.22956 8.8598 7.28994C9.00558 7.35033 9.13803 7.43883 9.2496 7.5504L12 10.3032L14.7504 7.5504C14.8619 7.43865 14.9943 7.34999 15.1401 7.28949C15.2859 7.22899 15.4422 7.19786 15.6 7.19786C15.7578 7.19786 15.9141 7.22899 16.0599 7.28949C16.2057 7.34999 16.3381 7.43865 16.4496 7.5504ZM0 12C0 8.8174 1.26428 5.76516 3.51472 3.51472C5.76516 1.26428 8.8174 0 12 0C15.1826 0 18.2348 1.26428 20.4853 3.51472C22.7357 5.76516 24 8.8174 24 12C24 15.1826 22.7357 18.2348 20.4853 20.4853C18.2348 22.7357 15.1826 24 12 24C8.8174 24 5.76516 22.7357 3.51472 20.4853C1.26428 18.2348 0 15.1826 0 12H0ZM12 2.4C9.45392 2.4 7.01212 3.41143 5.21178 5.21178C3.41143 7.01212 2.4 9.45392 2.4 12C2.4 14.5461 3.41143 16.9879 5.21178 18.7882C7.01212 20.5886 9.45392 21.6 12 21.6C14.5461 21.6 16.9879 20.5886 18.7882 18.7882C20.5886 16.9879 21.6 14.5461 21.6 12C21.6 9.45392 20.5886 7.01212 18.7882 5.21178C16.9879 3.41143 14.5461 2.4 12 2.4V2.4Z" fill="#9D9F9F"/>
</g>
<defs>
<clipPath id="clip0_39_317">
<rect width="24" height="24" fill="white"/>
</clipPath>
</defs>
</svg>
