<svg width="15" height="14" viewBox="0 0 15 14" fill="none" xmlns="http://www.w3.org/2000/svg">
<path d="M1.02988 0.965517H9.26896V5.69655H10.2988V0.965517C10.2988 0.709446 10.1903 0.463863 9.9972 0.282793C9.80406 0.101724 9.54211 0 9.26896 0H1.02988C0.756742 0 0.494787 0.101724 0.301646 0.282793C0.108505 0.463863 0 0.709446 0 0.965517V12.5517C0 12.8078 0.108505 13.0534 0.301646 13.2344C0.494787 13.4155 0.756742 13.5172 1.02988 13.5172H9.26896C9.54211 13.5172 9.80406 13.4155 9.9972 13.2344C10.1903 13.0534 10.2988 12.8078 10.2988 12.5517H1.02988V0.965517Z" fill="#9D9F9F"/>
<path d="M11.9262 6.41104C11.8276 6.33195 11.7009 6.29062 11.5713 6.29531C11.4417 6.30001 11.3188 6.35037 11.2271 6.43635C11.1354 6.52233 11.0817 6.63758 11.0767 6.75908C11.0716 6.88058 11.1157 6.99937 11.2001 7.09172L12.9406 8.68966H5.47393C5.33736 8.68966 5.20638 8.74052 5.10981 8.83105C5.01324 8.92159 4.95898 9.04438 4.95898 9.17241C4.95898 9.30045 5.01324 9.42324 5.10981 9.51378C5.20638 9.60431 5.33736 9.65517 5.47393 9.65517H12.9406L11.2001 11.3255C11.1462 11.3688 11.1024 11.4221 11.0715 11.4819C11.0406 11.5418 11.0232 11.6071 11.0205 11.6736C11.0177 11.74 11.0297 11.8063 11.0556 11.8683C11.0815 11.9302 11.1207 11.9865 11.1709 12.0336C11.2211 12.0806 11.2811 12.1174 11.3472 12.1417C11.4133 12.166 11.484 12.1772 11.5549 12.1746C11.6258 12.172 11.6954 12.1557 11.7593 12.1268C11.8232 12.0978 11.88 12.0567 11.9262 12.0062L14.9334 9.20621L11.9262 6.41104Z" fill="#9D9F9F"/>
</svg>
