<svg width="100" height="52" viewBox="0 0 100 52" fill="none" xmlns="http://www.w3.org/2000/svg">
<circle cx="25" cy="25" r="25" fill="#1D4A57"/>
<path d="M32.918 42.21C30.538 42.21 28.55 41.79 26.954 40.95C25.358 40.11 24.084 38.976 23.132 37.548C22.18 36.092 21.494 34.468 21.074 32.676C20.654 30.884 20.444 29.05 20.444 27.174V12.18H22.586V27.174C22.586 28.798 22.754 30.394 23.09 31.962C23.426 33.53 23.972 34.944 24.728 36.204C25.512 37.436 26.562 38.416 27.878 39.144C29.222 39.872 30.888 40.236 32.876 40.236C34.892 40.236 36.558 39.858 37.874 39.102C39.218 38.346 40.268 37.352 41.024 36.12C41.808 34.86 42.354 33.46 42.662 31.92C42.998 30.352 43.166 28.77 43.166 27.174V12.18H45.308V27.174C45.308 29.162 45.084 31.066 44.636 32.886C44.216 34.678 43.516 36.274 42.536 37.674C41.556 39.074 40.282 40.18 38.714 40.992C37.146 41.804 35.214 42.21 32.918 42.21Z" fill="white"/>
<path d="M57.4581 42.36C55.9701 42.36 54.5901 42.108 53.3181 41.604C52.0461 41.1 50.9301 40.332 49.9701 39.3L50.7981 38.04C51.8301 39.024 52.8741 39.744 53.9301 40.2C54.9861 40.632 56.1381 40.848 57.3861 40.848C58.9941 40.848 60.2901 40.512 61.2741 39.84C62.2821 39.168 62.7861 38.232 62.7861 37.032C62.7861 36.216 62.5461 35.592 62.0661 35.16C61.6101 34.704 60.9381 34.344 60.0501 34.08C59.1861 33.792 58.1301 33.492 56.8821 33.18C55.6101 32.844 54.5301 32.496 53.6421 32.136C52.7781 31.776 52.1301 31.308 51.6981 30.732C51.2661 30.156 51.0501 29.376 51.0501 28.392C51.0501 27.168 51.3501 26.16 51.9501 25.368C52.5741 24.552 53.4021 23.952 54.4341 23.568C55.4901 23.16 56.6541 22.956 57.9261 22.956C59.3901 22.956 60.6621 23.196 61.7421 23.676C62.8461 24.156 63.6861 24.792 64.2621 25.584L63.2901 26.736C62.6901 25.968 61.9101 25.404 60.9501 25.044C59.9901 24.66 58.9341 24.468 57.7821 24.468C56.9181 24.468 56.1021 24.588 55.3341 24.828C54.5661 25.068 53.9421 25.464 53.4621 26.016C53.0061 26.544 52.7781 27.264 52.7781 28.176C52.7781 28.896 52.9461 29.46 53.2821 29.868C53.6421 30.276 54.1701 30.612 54.8661 30.876C55.5621 31.116 56.4261 31.38 57.4581 31.668C58.9221 32.028 60.1821 32.4 61.2381 32.784C62.2941 33.168 63.1101 33.672 63.6861 34.296C64.2621 34.896 64.5501 35.748 64.5501 36.852C64.5501 38.556 63.9021 39.9 62.6061 40.884C61.3101 41.868 59.5941 42.36 57.4581 42.36ZM76.6287 42.36C75.3087 42.36 74.0847 42.108 72.9567 41.604C71.8527 41.1 70.8927 40.404 70.0767 39.516C69.2607 38.604 68.6247 37.56 68.1687 36.384C67.7127 35.208 67.4847 33.972 67.4847 32.676C67.4847 31.356 67.7127 30.12 68.1687 28.968C68.6247 27.792 69.2607 26.76 70.0767 25.872C70.9167 24.96 71.8887 24.252 72.9927 23.748C74.1207 23.22 75.3327 22.956 76.6287 22.956C77.9247 22.956 79.1247 23.22 80.2287 23.748C81.3327 24.252 82.3047 24.96 83.1447 25.872C83.9847 26.76 84.6327 27.792 85.0887 28.968C85.5447 30.12 85.7727 31.356 85.7727 32.676C85.7727 33.972 85.5447 35.208 85.0887 36.384C84.6327 37.56 83.9847 38.604 83.1447 39.516C82.3287 40.404 81.3567 41.1 80.2287 41.604C79.1247 42.108 77.9247 42.36 76.6287 42.36ZM69.2847 32.748C69.2847 34.212 69.6087 35.556 70.2567 36.78C70.9287 37.98 71.8167 38.94 72.9207 39.66C74.0247 40.38 75.2487 40.74 76.5927 40.74C77.9367 40.74 79.1607 40.38 80.2647 39.66C81.3927 38.916 82.2807 37.932 82.9287 36.708C83.6007 35.46 83.9367 34.104 83.9367 32.64C83.9367 31.176 83.6007 29.832 82.9287 28.608C82.2807 27.384 81.3927 26.412 80.2647 25.692C79.1607 24.948 77.9487 24.576 76.6287 24.576C75.2847 24.576 74.0607 24.948 72.9567 25.692C71.8527 26.436 70.9647 27.42 70.2927 28.644C69.6207 29.868 69.2847 31.236 69.2847 32.748ZM90.6321 42V24.756H88.0041V23.28H90.6321V22.668C90.6321 21.156 90.8481 19.848 91.2801 18.744C91.7121 17.64 92.3241 16.8 93.1161 16.224C93.9081 15.648 94.8441 15.36 95.9241 15.36C96.6441 15.36 97.3401 15.468 98.0121 15.684C98.6841 15.9 99.2361 16.188 99.6681 16.548L99.0201 17.844C98.7081 17.556 98.3001 17.34 97.7961 17.196C97.2921 17.028 96.7761 16.944 96.2481 16.944C95.0241 16.944 94.0761 17.436 93.4041 18.42C92.7561 19.38 92.4321 20.784 92.4321 22.632V23.28H97.7601V24.756H92.4321V42H90.6321Z" fill="#1D4A57"/>
</svg>
