<svg width="24" height="24" viewBox="0 0 24 24" fill="none" xmlns="http://www.w3.org/2000/svg">
<path d="M18.7376 7.74796L16.1815 5.25465C16.0126 5.09156 15.784 5 15.5457 5C15.3074 5 15.0788 5.09156 14.9099 5.25465L5.84807 14.0362L5.0207 17.5014C4.99216 17.6281 4.99314 17.7594 5.02357 17.8856C5.054 18.0119 5.1131 18.13 5.19657 18.2312C5.28004 18.3325 5.38576 18.4144 5.50601 18.4709C5.62626 18.5274 5.75801 18.5571 5.89162 18.5579C5.95388 18.564 6.01661 18.564 6.07887 18.5579L9.6888 17.755L18.7376 8.98193C18.9057 8.81801 19 8.59618 19 8.36494C19 8.13371 18.9057 7.91188 18.7376 7.74796V7.74796ZM9.25335 16.9943L5.86985 17.6832L6.6406 14.463L13.4207 7.90854L16.0334 10.4441L9.25335 16.9943ZM16.6169 9.83135L14.0042 7.29578L15.5196 5.8336L18.0888 8.36917L16.6169 9.83135Z" fill="#9D9F9F"/>
</svg>
