<svg width="24" height="24" viewBox="0 0 24 24" fill="none" xmlns="http://www.w3.org/2000/svg">
<path d="M12.3536 4.64645C12.1583 4.45118 11.8417 4.45118 11.6464 4.64645L8.46447 7.82843C8.2692 8.02369 8.2692 8.34027 8.46447 8.53553C8.65973 8.7308 8.97631 8.7308 9.17157 8.53553L12 5.70711L14.8284 8.53553C15.0237 8.7308 15.3403 8.7308 15.5355 8.53553C15.7308 8.34027 15.7308 8.02369 15.5355 7.82843L12.3536 4.64645ZM11.5 19C11.5 19.2761 11.7239 19.5 12 19.5C12.2761 19.5 12.5 19.2761 12.5 19H11.5ZM11.5 5V19H12.5V5H11.5Z" fill="#9D9F9F"/>
</svg>
