<svg width="24" height="24" viewBox="0 0 24 24" fill="none" xmlns="http://www.w3.org/2000/svg">
<path d="M11.6464 19.3536C11.8417 19.5488 12.1583 19.5488 12.3536 19.3536L15.5355 16.1716C15.7308 15.9763 15.7308 15.6597 15.5355 15.4645C15.3403 15.2692 15.0237 15.2692 14.8284 15.4645L12 18.2929L9.17157 15.4645C8.97631 15.2692 8.65973 15.2692 8.46447 15.4645C8.2692 15.6597 8.2692 15.9763 8.46447 16.1716L11.6464 19.3536ZM12.5 5C12.5 4.72386 12.2761 4.5 12 4.5C11.7239 4.5 11.5 4.72386 11.5 5H12.5ZM12.5 19V5H11.5V19H12.5Z" fill="#9D9F9F"/>
</svg>
